<?xml version="1.0" encoding="UTF-8"?>
<svg width="297px" height="96px" viewBox="0 0 297 96" version="1.1" xmlns="http://www.w3.org/2000/svg" xmlns:xlink="http://www.w3.org/1999/xlink">
    <!-- Generator: Sketch 45.1 (43504) - http://www.bohemiancoding.com/sketch -->
    <title>Slice</title>
    <desc>Created with Sketch.</desc>
    <defs></defs>
    <g id="Page-1" stroke="none" stroke-width="1" fill="none" fill-rule="evenodd">
        <path d="M26.9028353,10.1546804 L36.4803078,10.1161578 L31.3791792,15.9419714 L36.4803078,21.767785 L27.4849181,21.767785 C27.5323407,25.2222259 27.611845,27.4031514 27.7234309,28.3105615 C28.0145183,30.6776663 29.0189177,34.440529 33.8241229,38.3360993 C38.6293281,42.2316697 44.7116131,41.4456339 50.1530666,46.4821475 C53.0558546,49.1689169 54.6248116,52.1125618 54.8599375,55.3130822 L55.0465369,95.8371931 C53.6842563,91.7733977 51.8492031,88.8096243 49.5413775,86.9458727 C46.0796391,84.1502453 45.2764314,83.9700835 41.1595472,82.6665735 C37.0426629,81.3630635 25.1862545,82.3930134 14.6531319,75.8993691 C4.12000927,69.4057249 0.784301178,57.97864 0.40032497,55.5482527 C0.144340831,53.9279945 0.183299096,40.2097011 0.517199764,14.3933724 C1.74187688,5.43297113 6.06893668,0.868535547 13.4983791,0.70006563 C20.301756,0.545792365 24.7699081,3.69733063 26.9028353,10.1546804 Z M18.2090788,18.3691698 C19.6766893,18.3691698 20.8664227,17.1740286 20.8664227,15.6997471 C20.8664227,14.2254657 19.6766893,13.0303245 18.2090788,13.0303245 C16.7414684,13.0303245 15.551735,14.2254657 15.551735,15.6997471 C15.551735,17.1740286 16.7414684,18.3691698 18.2090788,18.3691698 Z" id="Path-5" fill="#62BCEC"></path>
        <path d="M124.903849,23.3625604 L124.903849,62.8825779 C124.903849,67.0196803 123.96485,70.6259819 122.086823,73.701591 C120.208797,76.7772 117.541494,79.1451112 114.084836,80.8053958 C110.628178,82.4656803 106.613616,83.2958101 102.041029,83.2958101 C95.3998914,83.2958101 89.2487656,81.3633768 83.5874676,77.4984521 L87.8334198,69.8230769 C91.9705222,72.8714681 96.5158232,74.3956409 101.469459,74.3956409 C105.388819,74.3956409 108.505208,73.3885981 110.818719,71.3744825 C113.13223,69.3603669 114.288969,66.6114124 114.288969,63.1275367 L114.288969,57.9834022 C112.819209,60.2152601 110.913993,61.9163457 108.573264,63.0867102 C106.232535,64.2570747 103.510798,64.8422482 100.407971,64.8422482 C96.5974818,64.8422482 93.2225278,63.9576837 90.2830077,62.188528 C87.3434876,60.4193724 85.0572284,57.9425917 83.4241617,54.7581115 C81.791095,51.5736314 80.9745738,47.912895 80.9745738,43.7757926 C80.9745738,39.6931258 81.791095,36.0868241 83.4241617,32.9567796 C85.0572284,29.826735 87.3434876,27.3907803 90.2830077,25.6488424 C93.2225278,23.9069046 96.5974818,23.0359487 100.407971,23.0359487 C103.456362,23.0359487 106.16449,23.6347309 108.532437,24.8323132 C110.900384,26.0298954 112.819209,27.7173724 114.288969,29.8947947 L114.288969,23.3625604 L124.903849,23.3625604 Z M111.063678,53.0434 C113.213883,50.7298888 114.288969,47.7223693 114.288969,44.0207514 C114.288969,40.3191335 113.213883,37.311614 111.063678,34.9981028 C108.913474,32.6845916 106.123693,31.5278533 102.694253,31.5278533 C99.2648127,31.5278533 96.4750322,32.6982003 94.3248277,35.0389292 C92.1746231,37.3796582 91.0723196,40.373569 91.0178841,44.0207514 C91.0723196,47.7223693 92.1746231,50.7298888 94.3248277,53.0434 C96.4750322,55.3569112 99.2648127,56.5136495 102.694253,56.5136495 C106.123693,56.5136495 108.913474,55.3569112 111.063678,53.0434 Z M137.297735,6.46040422 L147.912615,6.46040422 L147.912615,67.0468773 L137.297735,67.0468773 L137.297735,6.46040422 Z M186.843702,67.0468773 L186.843702,61.7394369 C185.319507,63.6446814 183.359856,65.0872021 180.964691,66.0670421 C178.569527,67.0468822 175.820572,67.5367948 172.717746,67.5367948 C169.669354,67.5367948 166.988443,66.9516214 164.674932,65.7812569 C162.361421,64.6108924 160.578683,62.9914588 159.326665,60.9229076 C158.074647,58.8543564 157.448648,56.5408799 157.448648,53.9824087 C157.448648,49.8997418 158.891169,46.7017008 161.776253,44.3881896 C164.661338,42.0746784 168.743943,40.8907227 174.024192,40.8362872 L186.762049,40.8362872 L186.762049,39.6931462 C186.762049,37.134675 185.918311,35.1478069 184.230808,33.7324824 C182.543306,32.3171579 180.093743,31.6095062 176.882045,31.6095062 C172.744943,31.6095062 168.417381,32.9703748 163.899229,35.6921527 L160.061542,28.3433891 C163.490982,26.4381446 166.607371,25.0636673 169.410802,24.2199162 C172.214233,23.376165 175.493926,22.9542958 179.24998,22.9542958 C184.911278,22.9542958 189.306883,24.3151643 192.436928,27.0369422 C195.566972,29.7587201 197.159189,33.569152 197.213624,38.4683522 L197.295277,67.0468773 L186.843702,67.0468773 Z M183.715767,57.2076994 C185.893189,55.7651571 187.117971,53.9824193 187.390149,51.8594325 L187.390149,47.940092 L176.367003,47.940092 C173.536354,47.940092 171.454225,48.3619612 170.120554,49.2057124 C168.786883,50.0494635 168.120058,51.4239407 168.120058,53.3291853 C168.120058,55.1799942 168.814101,56.6497323 170.202207,57.7384434 C171.590314,58.8271546 173.481921,59.371502 175.877086,59.371502 C178.925477,59.371502 181.538345,58.6502417 183.715767,57.2076994 Z M222.93892,80.6420899 C220.407667,82.4656811 217.400147,83.377463 213.916272,83.377463 C211.793285,83.377463 209.87446,83.0644632 208.15974,82.4384543 C206.44502,81.8124454 204.743934,80.8190114 203.056432,79.4581224 L207.628996,71.3744825 C208.663272,72.1365803 209.61588,72.6945364 210.486848,73.0483675 C211.357817,73.4021987 212.283208,73.5791116 213.263048,73.5791116 C216.148133,73.5791116 218.271088,72.1093736 219.631977,69.1698534 L220.938423,66.3120009 L202.893126,23.3625604 L213.916272,23.3625604 L226.327517,55.1255497 L237.677274,23.3625604 L248.373807,23.3625604 L228.777105,72.5176235 C227.416216,76.1103703 225.470174,78.8184987 222.93892,80.6420899 Z M296.839444,23.3625604 L296.839444,67.0468773 L286.14291,67.0468773 L286.14291,58.9632373 C283.20339,64.6245354 278.140959,67.4551419 270.955466,67.4551419 C266.056265,67.4551419 262.191399,65.9581865 259.36075,62.9642308 C256.530101,59.9702752 255.114797,55.8876696 255.114797,50.7162915 L255.114797,23.3625604 L265.811331,23.3625604 L265.811331,47.6134803 C265.811331,50.6618715 266.641461,53.0570001 268.301745,54.798938 C269.96203,56.5408758 272.261898,57.4118317 275.201418,57.4118317 C278.576422,57.3573961 281.243725,56.1598318 283.203405,53.8191028 C285.163085,51.4783738 286.14291,48.5116804 286.14291,44.9189336 L286.14291,23.3625604 L296.839444,23.3625604 Z" id="glayu" fill="#9B9B9B"></path>
    </g>
</svg>