<?xml version="1.0" encoding="UTF-8"?>
<svg width="473px" height="152px" viewBox="0 0 473 152" version="1.1" xmlns="http://www.w3.org/2000/svg" xmlns:xlink="http://www.w3.org/1999/xlink">
    <!-- Generator: Sketch 45.1 (43504) - http://www.bohemiancoding.com/sketch -->
    <title>Group 4</title>
    <desc>Created with Sketch.</desc>
    <defs></defs>
    <g id="Page-1" stroke="none" stroke-width="1" fill="none" fill-rule="evenodd">
        <g id="Group-4">
            <path d="M43.0721386,15.421674 L58.3204762,15.3603419 L50.1989461,24.6356463 L58.3204762,33.9109508 L43.9988752,33.9109508 C44.074377,39.4107819 44.2009561,42.8830433 44.3786126,44.3277351 C44.8420541,48.0964134 46.441163,54.0872842 54.0915521,60.2894395 C61.7419412,66.4915948 71.4255748,65.2401437 80.0889378,73.2587999 C84.7104798,77.5364178 87.2084233,82.2230082 87.5827684,87.3185713 L87.8798542,151.837193 C85.710961,145.367206 82.7893645,140.648569 79.1150649,137.681281 C73.6036153,133.23035 72.3248247,132.943514 65.7703145,130.86819 C59.2158043,128.792865 40.3391624,130.432653 23.5693299,120.094093 C6.79949734,109.755532 1.48870128,91.562418 0.877371011,87.6929874 C0.469817497,85.1133669 0.531843127,63.2724094 1.0634479,22.1701148 C3.01326193,7.90421911 9.90239355,0.637160398 21.7308428,0.368938674 C32.5625301,0.123319506 39.6762954,5.14089794 43.0721386,15.421674 Z M29.2307692,28.5 C31.5673586,28.5 33.4615385,26.5972102 33.4615385,24.25 C33.4615385,21.9027898 31.5673586,20 29.2307692,20 C26.8941799,20 25,21.9027898 25,24.25 C25,26.5972102 26.8941799,28.5 29.2307692,28.5 Z" id="Path-5" fill="#62BCEC"></path>
            <path d="M199.1,36.45 L199.1,99.37 C199.1,105.9567 197.605015,111.698309 194.615,116.595 C191.624985,121.491691 187.378361,125.261653 181.875,127.905 C176.371639,130.548347 169.980036,131.87 162.7,131.87 C152.126614,131.87 142.333378,128.793364 133.32,122.64 L140.08,110.42 C146.6667,115.273358 153.903294,117.7 161.79,117.7 C168.030031,117.7 172.991648,116.096683 176.675,112.89 C180.358352,109.683317 182.2,105.306694 182.2,99.76 L182.2,91.57 C179.859988,95.1233511 176.826685,97.8316574 173.1,99.695 C169.373315,101.558343 165.040025,102.49 160.1,102.49 C154.033303,102.49 148.660023,101.081681 143.98,98.265 C139.299977,95.4483192 135.660013,91.5050253 133.06,86.435 C130.459987,81.3649747 129.16,75.5366996 129.16,68.95 C129.16,62.4499675 130.459987,56.7083582 133.06,51.725 C135.660013,46.7416417 139.299977,42.8633472 143.98,40.09 C148.660023,37.3166528 154.033303,35.93 160.1,35.93 C164.953358,35.93 169.264981,36.8833238 173.035,38.79 C176.805019,40.6966762 179.859988,43.383316 182.2,46.85 L182.2,36.45 L199.1,36.45 Z M177.065,83.705 C180.48835,80.0216482 182.2,75.2333628 182.2,69.34 C182.2,63.4466372 180.48835,58.6583518 177.065,54.975 C173.64165,51.2916482 169.200027,49.45 163.74,49.45 C158.279973,49.45 153.83835,51.3133147 150.415,55.04 C146.99165,58.7666853 145.236667,63.5333043 145.15,69.34 C145.236667,75.2333628 146.99165,80.0216482 150.415,83.705 C153.83835,87.3883517 158.279973,89.23 163.74,89.23 C169.200027,89.23 173.64165,87.3883517 177.065,83.705 Z M218.832361,9.54 L235.732361,9.54 L235.732361,106 L218.832361,106 L218.832361,9.54 Z M297.714722,106 L297.714722,97.55 C295.288043,100.583348 292.168074,102.879992 288.354722,104.44 C284.54137,106.000008 280.164747,106.78 275.224722,106.78 C270.371364,106.78 266.103074,105.848343 262.419722,103.985 C258.73637,102.121657 255.898065,99.5433498 253.904722,96.25 C251.911379,92.9566502 250.914722,89.2733537 250.914722,85.2 C250.914722,78.6999675 253.211366,73.6083517 257.804722,69.925 C262.398078,66.2416483 268.898013,64.3566671 277.304722,64.27 L297.584722,64.27 L297.584722,62.45 C297.584722,58.3766463 296.241402,55.2133446 293.554722,52.96 C290.868042,50.7066554 286.968081,49.58 281.854722,49.58 C275.268022,49.58 268.378091,51.746645 261.184722,56.08 L255.074722,44.38 C260.534749,41.3466515 265.496366,39.15834 269.959722,37.815 C274.423078,36.47166 279.644692,35.8 285.624722,35.8 C294.6381,35.8 301.636364,37.966645 306.619722,42.3 C311.60308,46.633355 314.138055,52.699961 314.224722,60.5 L314.354722,106 L297.714722,106 Z M292.734722,90.335 C296.201406,88.0383218 298.151386,85.2000169 298.584722,81.82 L298.584722,75.58 L281.034722,75.58 C276.528033,75.58 273.213066,76.2516599 271.089722,77.595 C268.966378,78.93834 267.904722,81.1266515 267.904722,84.16 C267.904722,87.1066814 269.009711,89.446658 271.219722,91.18 C273.429733,92.913342 276.44137,93.78 280.254722,93.78 C285.10808,93.78 289.268038,92.6316781 292.734722,90.335 Z M355.182083,127.645 C351.152063,130.548348 346.363777,132 340.817083,132 C337.437066,132 334.382097,131.501672 331.652083,130.505 C328.922069,129.508328 326.213763,127.926677 323.527083,125.76 L330.807083,112.89 C332.453758,114.103339 333.970409,114.991664 335.357083,115.555 C336.743757,116.118336 338.217075,116.4 339.777083,116.4 C344.370439,116.4 347.750405,114.060023 349.917083,109.38 L351.997083,104.83 L323.267083,36.45 L340.817083,36.45 L360.577083,87.02 L378.647083,36.45 L395.677083,36.45 L364.477083,114.71 C362.310405,120.430029 359.212103,124.741652 355.182083,127.645 Z M472.839444,36.45 L472.839444,106 L455.809444,106 L455.809444,93.13 C451.129421,102.143378 443.069501,106.65 431.629444,106.65 C423.829405,106.65 417.676133,104.26669 413.169444,99.5 C408.662755,94.7333095 406.409444,88.2333745 406.409444,80 L406.409444,36.45 L423.439444,36.45 L423.439444,75.06 C423.439444,79.9133576 424.761097,83.7266528 427.404444,86.5 C430.047791,89.2733472 433.709421,90.66 438.389444,90.66 C443.762804,90.5733329 448.009428,88.6666853 451.129444,84.94 C454.24946,81.2133147 455.809444,76.4900286 455.809444,70.77 L455.809444,36.45 L472.839444,36.45 Z" id="glayu" fill="#9B9B9B"></path>
        </g>
    </g>
</svg>